<svg id="Layer_1" data-name="Layer 1" xmlns="http://www.w3.org/2000/svg" viewBox="0 0 58.47 34.58"><defs><style>.cls-1{fill:#2b5597;}.cls-2{fill:#ffc629;}</style></defs><path class="cls-1" d="M94.46,180.55a3.43,3.43,0,0,0,.94-.24,3,3,0,0,0,1.22-.89,2.15,2.15,0,0,0,.52-1.42,2.12,2.12,0,0,0-.24-1,2.64,2.64,0,0,0-.7-.84,3.19,3.19,0,0,0-1.09-.59,4.23,4.23,0,0,0-1.34-.21H90.23v9.16h.87v-8.36h2.67a3.25,3.25,0,0,1,1.33.27,2.23,2.23,0,0,1,.88.69,1.38,1.38,0,0,1-.06,1.79,2.34,2.34,0,0,1-.86.64,5.17,5.17,0,0,1-1.79.26H91.85l4.27,4.71h1.15L93.7,180.6C94,180.59,94.22,180.58,94.46,180.55Z" transform="translate(-76.6 -157.18)"/><path class="cls-1" d="M104,176.62a4.41,4.41,0,0,1,2.1-.52,4.5,4.5,0,0,1,1.66.32,4,4,0,0,1,1.4.9l.06.06.64-.55-.07-.07a5.36,5.36,0,0,0-6.23-.86,4.89,4.89,0,0,0-1.84,1.68,4.33,4.33,0,0,0,0,4.66,4.89,4.89,0,0,0,1.84,1.68,5.33,5.33,0,0,0,2.54.62h3.66V179.9h-4.15v.8h3.25v3h-2.76a4.3,4.3,0,0,1-2.1-.52,4.06,4.06,0,0,1-1.54-1.39,3.53,3.53,0,0,1-.56-1.92,3.49,3.49,0,0,1,.56-1.9A4,4,0,0,1,104,176.62Z" transform="translate(-76.6 -157.18)"/><path class="cls-1" d="M76.6,184.54h1l1.17-2.28h5.15L85,184.54h.94l-4.53-9.38Zm4.76-7.44,2.12,4.36H79.14Z" transform="translate(-76.6 -157.18)"/><path class="cls-1" d="M121.37,175.91a5.55,5.55,0,0,0-5.1,0,4.93,4.93,0,0,0-1.86,1.7,4.4,4.4,0,0,0,0,4.7,4.93,4.93,0,0,0,1.86,1.7,5.55,5.55,0,0,0,5.1,0,5,5,0,0,0,1.86-1.7,4.4,4.4,0,0,0,0-4.7A5,5,0,0,0,121.37,175.91ZM123,180a3.54,3.54,0,0,1-.56,1.93,4.11,4.11,0,0,1-1.54,1.41,4.45,4.45,0,0,1-2.11.52,4.52,4.52,0,0,1-2.12-.52,4.16,4.16,0,0,1-1.53-1.41,3.55,3.55,0,0,1,0-3.86,4.11,4.11,0,0,1,1.54-1.41,4.54,4.54,0,0,1,4.22,0,4.11,4.11,0,0,1,1.54,1.41A3.54,3.54,0,0,1,123,180Z" transform="translate(-76.6 -157.18)"/><path class="cls-1" d="M134.67,180.92a3.29,3.29,0,0,0-1.12-.9,2.78,2.78,0,0,0-.69-.24,7.6,7.6,0,0,0-.83-.16l-.53-.07c-.4,0-.74-.09-1-.13a2.7,2.7,0,0,1-.68-.19,2.26,2.26,0,0,1-.83-.63,1.24,1.24,0,0,1-.33-.79,1.11,1.11,0,0,1,.2-.62,2,2,0,0,1,.58-.57,2.92,2.92,0,0,1,.91-.4,4.24,4.24,0,0,1,2.18,0,3.14,3.14,0,0,1,.91.4,2.12,2.12,0,0,1,.56.56,1.21,1.21,0,0,1,.21.62v.14l.84-.43v-.07A2.39,2.39,0,0,0,134,176a4.57,4.57,0,0,0-2.53-.71,4.71,4.71,0,0,0-1.36.19,4,4,0,0,0-1.17.52,2.67,2.67,0,0,0-.82.82,1.84,1.84,0,0,0-.3,1,2,2,0,0,0,.45,1.23,3.11,3.11,0,0,0,1.2.91,4.75,4.75,0,0,0,1.16.31l.77.11a6.26,6.26,0,0,1,1.76.36,2.32,2.32,0,0,1,.8.61,1.2,1.2,0,0,1,.28.75,1.42,1.42,0,0,1-.77,1.19,3.46,3.46,0,0,1-2,.55,4.3,4.3,0,0,1-1.1-.14,2.75,2.75,0,0,1-.9-.41,1.44,1.44,0,0,1-.78-1.17V182l-.84.43,0,.06a2.36,2.36,0,0,0,1.08,1.48,4,4,0,0,0,1.17.52,4.71,4.71,0,0,0,1.36.19,4.54,4.54,0,0,0,2.53-.71,2.58,2.58,0,0,0,.81-.84,1.91,1.91,0,0,0-.11-2.18Z" transform="translate(-76.6 -157.18)"/><path class="cls-2" d="M98.92,161.77a18.6,18.6,0,0,0,5.47,7.8,18.67,18.67,0,0,0-2.22-4.26,19.29,19.29,0,0,0-3.25-3.54" transform="translate(-76.6 -157.18)"/><path class="cls-2" d="M112.62,161.77a18.37,18.37,0,0,1-5.47,7.8,18.6,18.6,0,0,1,5.47-7.8" transform="translate(-76.6 -157.18)"/><path class="cls-2" d="M105.77,157.18a22.24,22.24,0,0,0,0,11.75,22,22,0,0,0,0-11.75" transform="translate(-76.6 -157.18)"/><path class="cls-2" d="M100.94,169.18a7.77,7.77,0,0,0-2.73-1.07,9.63,9.63,0,0,0,2.31,2.09,7.77,7.77,0,0,0,2.73,1.07,9.63,9.63,0,0,0-2.31-2.09" transform="translate(-76.6 -157.18)"/><path class="cls-2" d="M110.61,169.18a7.7,7.7,0,0,1,2.73-1.07A9.56,9.56,0,0,1,111,170.2a7.7,7.7,0,0,1-2.73,1.07,9.8,9.8,0,0,1,2.32-2.09" transform="translate(-76.6 -157.18)"/><path class="cls-1" d="M114.45,190v-1.26h1.44c.45,0,.79.11.79.63s-.34.63-.79.63Zm0,.3h1.44c.88,0,1.09-.45,1.09-.93s-.21-.93-1.09-.93h-1.73v3.26h.29Zm-1.83-1.86h-.3L111,190.7l-1.31-2.27h-.3v3.26h.3V189h0l1.3,2.21,1.3-2.21h0v2.67h.3Zm-6.3,3a1.4,1.4,0,1,1,1.45-1.4,1.4,1.4,0,0,1-1.45,1.4m1.75-1.4a1.75,1.75,0,1,0-1.75,1.7,1.67,1.67,0,0,0,1.75-1.7m-4.74.82a1.94,1.94,0,0,1-1.38.58,1.4,1.4,0,1,1,0-2.8,1.71,1.71,0,0,1,1.32.55l.2-.22a1.93,1.93,0,0,0-1.52-.63,1.71,1.71,0,0,0-1.79,1.7,1.69,1.69,0,0,0,1.74,1.7,2.26,2.26,0,0,0,1.59-.66Zm-7.07-.64H94.89l.69-1.48Zm-.53-1.81h-.3l-1.59,3.26h.33l.57-1.15h1.68l.57,1.15h.33Zm-3.63.3h1.23v-.3H90.57v.3H91.8v3h.3Zm-3,1.51H87.72l.69-1.48Zm-.54-1.81h-.29l-1.59,3.26H87l.57-1.15h1.67l.57,1.15h.33Zm-5.51,3v-2.67h1.35a1.35,1.35,0,0,1,0,2.67Zm-.3-3v3.26h1.65a1.56,1.56,0,0,0,1.43-1.63,1.55,1.55,0,0,0-1.43-1.63Z" transform="translate(-76.6 -157.18)"/><polygon class="cls-1" points="52.09 31.25 50.86 32.8 49.63 31.25 49.25 31.25 50.71 33.09 50.71 34.51 51.01 34.51 51.01 33.09 52.47 31.25 52.09 31.25"/><polygon class="cls-1" points="47.92 34.08 47.91 34.08 45.64 31.25 45.34 31.25 45.34 34.51 45.64 34.51 45.64 31.69 45.65 31.69 47.92 34.51 48.22 34.51 48.22 31.25 47.92 31.25 47.92 34.08"/><path class="cls-1" d="M119,188.43l-1.59,3.26h.33l.56-1.15H120l.57,1.15h.33l-1.59-3.26Zm-.55,1.81.69-1.48.69,1.48Z" transform="translate(-76.6 -157.18)"/></svg>