<svg xmlns="http://www.w3.org/2000/svg" viewBox="0 0 58.47 34.58"><defs><style>.cls-1{fill:#2b5597;}.cls-2{fill:#ffc629;}</style></defs><g id="Layer_2" data-name="Layer 2"><g id="Layer_1-2" data-name="Layer 1"><path class="cls-1" d="M17.86,23.37a3.46,3.46,0,0,0,.94-.25A3,3,0,0,0,20,22.23a2.15,2.15,0,0,0,.28-2.39,2.68,2.68,0,0,0-.7-.85,3.57,3.57,0,0,0-1.09-.59,4.48,4.48,0,0,0-1.34-.2H13.63v9.15h.87V19h2.67a3.1,3.1,0,0,1,1.33.27,2.3,2.3,0,0,1,.88.68,1.46,1.46,0,0,1,.3.87,1.43,1.43,0,0,1-.36.93,2.34,2.34,0,0,1-.86.64,5.2,5.2,0,0,1-1.79.25H15.25l4.27,4.71h1.15L17.1,23.42C17.37,23.41,17.62,23.4,17.86,23.37Z"/><path class="cls-1" d="M27.44,19.43a4.41,4.41,0,0,1,2.1-.51,4.5,4.5,0,0,1,1.66.32,4,4,0,0,1,1.4.9l.06.05.64-.54-.07-.07a5.05,5.05,0,0,0-1.68-1.1,5.45,5.45,0,0,0-4.55.23,5,5,0,0,0-1.84,1.69,4.33,4.33,0,0,0,0,4.66A4.89,4.89,0,0,0,27,26.74a5.32,5.32,0,0,0,2.54.61H33.2V22.71H29.05v.81H32.3v3H29.54a4.3,4.3,0,0,1-2.1-.52,4.08,4.08,0,0,1-1.54-1.4,3.49,3.49,0,0,1-.56-1.91,3.44,3.44,0,0,1,.56-1.9A4.06,4.06,0,0,1,27.44,19.43Z"/><path class="cls-1" d="M0,27.35H1l1.17-2.27H7.28l1.11,2.27h.94L4.8,18Zm4.76-7.43,2.13,4.35H2.54Z"/><path class="cls-1" d="M44.77,18.73a5.48,5.48,0,0,0-5.1,0,4.92,4.92,0,0,0-1.86,1.7,4.37,4.37,0,0,0-.68,2.35,4.31,4.31,0,0,0,.68,2.34,5,5,0,0,0,1.86,1.71,5.55,5.55,0,0,0,5.1,0,5,5,0,0,0,1.86-1.71,4.31,4.31,0,0,0,.68-2.34,4.37,4.37,0,0,0-.68-2.35A4.92,4.92,0,0,0,44.77,18.73Zm1.66,4.05a3.58,3.58,0,0,1-.56,1.93,4.05,4.05,0,0,1-1.53,1.4,4.41,4.41,0,0,1-2.12.52,4.34,4.34,0,0,1-2.11-.52,4,4,0,0,1-1.54-1.4,3.57,3.57,0,0,1,0-3.87,4.17,4.17,0,0,1,1.54-1.4,4.34,4.34,0,0,1,2.11-.52,4.41,4.41,0,0,1,2.12.52,4.22,4.22,0,0,1,1.53,1.4A3.59,3.59,0,0,1,46.43,22.78Z"/><path class="cls-1" d="M58.07,23.74A3.32,3.32,0,0,0,57,22.83a3.93,3.93,0,0,0-.69-.24c-.27-.06-.55-.11-.83-.15l-.53-.07-1-.13a3.48,3.48,0,0,1-.69-.19,2.29,2.29,0,0,1-.83-.64,1.22,1.22,0,0,1-.33-.79,1.14,1.14,0,0,1,.2-.62,2.08,2.08,0,0,1,.58-.56,2.93,2.93,0,0,1,.91-.41,4.47,4.47,0,0,1,2.18,0,3.16,3.16,0,0,1,.91.41,2.12,2.12,0,0,1,.56.56,1.18,1.18,0,0,1,.21.61v.14l.84-.42v-.07a2.41,2.41,0,0,0-1.07-1.47,4.62,4.62,0,0,0-2.53-.7,5.07,5.07,0,0,0-1.36.18,4.43,4.43,0,0,0-1.17.52,2.81,2.81,0,0,0-.82.83,1.82,1.82,0,0,0-.29,1,1.94,1.94,0,0,0,.44,1.24,3.09,3.09,0,0,0,1.2.9,4.34,4.34,0,0,0,1.16.31l.77.11a6.17,6.17,0,0,1,1.76.37,2.32,2.32,0,0,1,.8.61,1.2,1.2,0,0,1,.28.74,1.44,1.44,0,0,1-.77,1.2,3.54,3.54,0,0,1-2,.55,4.42,4.42,0,0,1-1.1-.14,3.09,3.09,0,0,1-.9-.41,1.46,1.46,0,0,1-.78-1.18v-.13l-.84.42,0,.07a2.39,2.39,0,0,0,1.08,1.48,4.43,4.43,0,0,0,1.17.52,5.07,5.07,0,0,0,1.36.18,4.54,4.54,0,0,0,2.53-.7,2.72,2.72,0,0,0,.82-.84,2,2,0,0,0,.28-1A1.9,1.9,0,0,0,58.07,23.74Z"/><path class="cls-2" d="M22.32,4.59a19,19,0,0,0,2.23,4.25,18.93,18.93,0,0,0,3.24,3.55,18.67,18.67,0,0,0-2.22-4.26,18.51,18.51,0,0,0-3.25-3.54"/><path class="cls-2" d="M36,4.59A18.73,18.73,0,0,1,33.8,8.84a18.93,18.93,0,0,1-3.24,3.55A18.46,18.46,0,0,1,36,4.59"/><path class="cls-2" d="M29.17,0a22.73,22.73,0,0,0-.79,5.88,22.7,22.7,0,0,0,.79,5.87A22.44,22.44,0,0,0,30,5.88,22.47,22.47,0,0,0,29.17,0"/><path class="cls-2" d="M24.34,12a8,8,0,0,0-2.73-1.07A9.55,9.55,0,0,0,23.92,13a7.78,7.78,0,0,0,2.74,1.07A10,10,0,0,0,24.34,12"/><path class="cls-2" d="M34,12a8,8,0,0,1,2.73-1.07A9.48,9.48,0,0,1,34.42,13a7.7,7.7,0,0,1-2.73,1.07A10,10,0,0,1,34,12"/><path class="cls-1" d="M37.85,32.81V31.55h1.44c.45,0,.8.11.8.63s-.35.63-.8.63Zm0,.3h1.44c.88,0,1.09-.45,1.09-.93s-.21-.93-1.09-.93H37.56v3.26h.29ZM36,31.25h-.3l-1.31,2.27L33.1,31.25h-.3v3.26h.3V31.83h0l1.3,2.22,1.3-2.22h0v2.68H36Zm-6.3,3a1.4,1.4,0,1,1,1.45-1.4,1.4,1.4,0,0,1-1.45,1.4m1.75-1.4a1.75,1.75,0,1,0-1.75,1.7,1.67,1.67,0,0,0,1.75-1.7m-4.74.82a1.94,1.94,0,0,1-1.38.58,1.4,1.4,0,1,1,0-2.8,1.78,1.78,0,0,1,1.33.54l.2-.21a1.94,1.94,0,0,0-1.53-.63,1.71,1.71,0,0,0-1.79,1.7,1.69,1.69,0,0,0,1.74,1.7,2.26,2.26,0,0,0,1.59-.66Zm-7.06-.64H18.29L19,31.58Zm-.54-1.81h-.3l-1.59,3.26h.33l.57-1.16h1.68l.57,1.16h.33Zm-3.63.3h1.23v-.3H14v.3H15.2v3h.3Zm-3,1.51H11.12l.69-1.48ZM12,31.25h-.29l-1.59,3.26h.33L11,33.35h1.67l.57,1.16h.33Zm-5.51,3V31.55H7.79a1.35,1.35,0,0,1,0,2.66Zm-.3-3v3.26H7.79a1.57,1.57,0,0,0,1.43-1.63,1.55,1.55,0,0,0-1.43-1.63Z"/><polygon class="cls-1" points="52.09 31.25 50.86 32.8 49.63 31.25 49.25 31.25 50.71 33.09 50.71 34.51 51.01 34.51 51.01 33.09 52.47 31.25 52.09 31.25"/><polygon class="cls-1" points="47.92 34.08 47.91 34.08 45.64 31.25 45.34 31.25 45.34 34.51 45.64 34.51 45.64 31.69 45.65 31.69 47.92 34.51 48.22 34.51 48.22 31.25 47.92 31.25 47.92 34.08"/><path class="cls-1" d="M42.39,31.25,40.8,34.51h.33l.57-1.16h1.67l.57,1.16h.33l-1.59-3.26Zm-.55,1.81.69-1.48.69,1.48Z"/></g></g></svg>